<?xml version="1.0" standalone="no"?>
<!DOCTYPE svg PUBLIC "-//W3C//DTD SVG 20010904//EN"
  "http://www.w3.org/TR/2001/REC-SVG-20010904/DTD/svg10.dtd">
<svg version="1.0" xmlns="http://www.w3.org/2000/svg"
     width="16.000000pt" height="16.000000pt" viewBox="0 0 16.000000 16.000000"
     preserveAspectRatio="xMidYMid meet">
  <metadata>
    Created by potrace 1.11, written by Peter Selinger 2001-2013
  </metadata>
  <g transform="translate(0.000000,16.000000) scale(0.002286,-0.002286)"
     fill="#000000" stroke="none">
    <path d="M0 4608 l0 -2392 43 42 c23 23 339 338 702 702 363 363 663 660 667
660 5 0 168 -160 363 -355 195 -195 358 -355 362 -355 5 0 383 376 842 835
l834 835 25 -22 c13 -13 176 -175 362 -362 l339 -339 910 910 910 910 321
-320 320 -321 0 982 0 982 -3500 0 -3500 0 0 -2392z"/>
    <path d="M5442 4104 l-903 -905 -343 343 c-189 189 -352 351 -363 361 -20 17
-39 -1 -855 -818 -460 -459 -838 -835 -841 -835 -3 0 -168 161 -365 359 l-359
359 -707 -707 -706 -706 0 -778 0 -777 3500 0 3500 0 0 2189 0 2189 -316 316
c-174 174 -321 316 -328 315 -6 0 -417 -408 -914 -905z"/>
  </g>
</svg>
